PathFileType	3	(X/Y/Z)	F:\ViconData\AntennenMessung\Messung1\Session1\ID22.trc
DataRate	CameraRate	NumFrames	NumMarkers	Units	OrigDataRate	OrigDataStartFrame	OrigNumFrames
120.0	120.0	5	70	mm	120.0	663	1060	
Frame#	Time	Ashort			Along			Atop			A4			Bshort			Blong			Btop			B4			Cshort			Clong			Ctop			C4			Dshort			Dlong			Dtop			D4			Eshort			Elong			Etop			E4			Fshort			Flong			Ftop			F4			Gshort			Glong			Gtop			G4			Hshort			Hlong			Htop			H4			I1			I2			I3			I4			I5			WandAshort			WandAlong			WandAtop			WandA4			WandA15			WandBshort			WandB4			WandB5			WandBtop			WandBlong			WandCshort			WandClong			WandCtop			WandC4			WandC5			Acenter			Aantenna			Bcenter			Bantenna			Ccenter			Cantenna			Dcenter			Dantenna			Ecenter			Eantenna			Fcenter			Fantenna			Gcenter			Gantenna			Hcenter			Hantenna			Icenter			Iantenna			
		X1	Y1	Z1	X2	Y2	Z2	X3	Y3	Z3	X4	Y4	Z4	X5	Y5	Z5	X6	Y6	Z6	X7	Y7	Z7	X8	Y8	Z8	X9	Y9	Z9	X10	Y10	Z10	X11	Y11	Z11	X12	Y12	Z12	X13	Y13	Z13	X14	Y14	Z14	X15	Y15	Z15	X16	Y16	Z16	X17	Y17	Z17	X18	Y18	Z18	X19	Y19	Z19	X20	Y20	Z20	X21	Y21	Z21	X22	Y22	Z22	X23	Y23	Z23	X24	Y24	Z24	X25	Y25	Z25	X26	Y26	Z26	X27	Y27	Z27	X28	Y28	Z28	X29	Y29	Z29	X30	Y30	Z30	X31	Y31	Z31	X32	Y32	Z32	X33	Y33	Z33	X34	Y34	Z34	X35	Y35	Z35	X36	Y36	Z36	X37	Y37	Z37	X38	Y38	Z38	X39	Y39	Z39	X40	Y40	Z40	X41	Y41	Z41	X42	Y42	Z42	X43	Y43	Z43	X44	Y44	Z44	X45	Y45	Z45	X46	Y46	Z46	X47	Y47	Z47	X48	Y48	Z48	X49	Y49	Z49	X50	Y50	Z50	X51	Y51	Z51	X52	Y52	Z52	X53	Y53	Z53	X54	Y54	Z54	X55	Y55	Z55	X56	Y56	Z56	X57	Y57	Z57	X58	Y58	Z58	X59	Y59	Z59	X60	Y60	Z60	X61	Y61	Z61	X62	Y62	Z62	X63	Y63	Z63	X64	Y64	Z64	X65	Y65	Z65	X66	Y66	Z66	X67	Y67	Z67	X68	Y68	Z68	X69	Y69	Z69	X70	Y70	Z70	
663	5.5166667	-1038.2302	214.67082	-1644.0977	-1109.4989	204.20183	-1599.3148	-1063.6019	172.99452	-1625.8604	-1054.1191	262.34933	-1634.8683	-1352.5509	234.98846	1003.545	-1281.3044	227.476	1052.0916	-1322.5922	194.07062	1020.8094	-1284.5312	287.91916	1052.6099	813.98511	187.78935	1209.4181	892.28662	178.70343	1178.9434	844.53687	145.45146	1198.3048	861.20709	292.50864	1168.3044	1115.8413	210.04607	-1401.8527	1056.299	194.1274	-1460.2241	1094.9218	162.1369	-1423.8625	1069.6764	239.48906	-1426.3232	-1204.5806	1686.0217	-1563.1743	-1129.1469	1688.3812	-1606.0111	-1173.2146	1724.5183	-1581.912	-1134.006	1581.1149	-1603.9275	-1239.5065	1698.9513	1119.4592	-1308.4431	1699.5568	1070.001	-1270.4778	1736.327	1096.9264	-1245.6305	1592.8534	1110.7156	988.8465	1664.1945	1162.1335	957.25049	1700.5978	1183.8058	921.88379	1662.302	1214.7747	939.85681	1659.4679	1159.7365	999.03693	1668.4562	-1579.4365	1058.9138	1670.1672	-1518.7257	1024.986	1708.0957	-1551.1763	1059.2877	1672.2311	-1585.5771	-272.52933	1636.8632	-231.64655	-187.7962	1640.1042	-237.90462	-235.64314	1675.2482	-233.77686	-233.36795	1637.7981	-202.51941	-239.32509	1639.24	-281.21878																																														-1068.5554	210.21617	-1625.0421	-1073.6992	248.86615	-1624.1926	-1321.3479	231.6983	1024.8063	-1320.0663	270.45917	1028.9236	848.14117	183.82594	1196.1245	851.78247	222.59306	1193.922	1088.6312	202.77144	-1428.5276	1082.703	241.0667	-1432.924	-1171.9305	1687.0428	-1581.7153	-1170.5953	1648.0663	-1581.5107	-1270.8409	1699.2263	1096.9784	-1271.2228	1660.2283	1097.0332	952.78778	1705.7393	1186.8667	972.81781	1733.8928	1168.7788	1026.5081	1669.2412	-1551.5826	1028.0349	1630.2732	-1551.9902	-234.28209	1638.326	-234.47133	-232.84567	1599.3594	-235.2043
664	5.525	-1038.2108	214.68842	-1644.0983	-1109.4537	204.22441	-1599.3296	-1063.6437	172.9417	-1625.8378	-1054.1388	262.36908	-1634.8857	-1352.6627	235.06239	1003.6382	-1281.3551	227.41336	1052.1879	-1322.5958	194.03195	1020.7951	-1284.575	287.89944	1052.7153	814.04272	187.77472	1209.4	892.44574	178.70833	1178.9668	844.53925	145.42119	1198.2872	861.19409	292.41922	1168.2787	1115.8356	210.05013	-1401.8458	1056.3414	194.14597	-1460.2858	1094.8861	162.05869	-1423.8435	1069.7257	239.53847	-1426.2922	-1204.5673	1686.0183	-1563.1775	-1129.146	1688.3704	-1605.9862	-1173.2314	1724.5256	-1581.9169	-1133.99	1581.0936	-1603.9362	-1239.5286	1698.9835	1119.4644	-1309.4041	1698.8842	1071.9657	-1270.4655	1736.3005	1096.9214	-1245.6876	1592.9728	1110.75	988.84723	1664.1945	1162.127	957.26227	1700.5421	1183.797	921.91461	1662.2717	1214.8179	939.85455	1659.4857	1159.7185	999.04694	1668.4373	-1579.3911	1058.9323	1670.1857	-1518.7313	1024.984	1708.1001	-1551.1722	1059.2743	1672.2324	-1585.5654	-272.51462	1636.8698	-231.64479	-187.80269	1640.083	-237.90799	-235.63226	1675.2531	-233.78148	-233.3721	1637.795	-202.50517	-239.31787	1639.2441	-281.21692																																														-1068.5959	210.22549	-1625.0042	-1073.73	248.87643	-1624.14	-1321.3763	231.70634	1024.9396	-1320.1221	270.45245	1029.2019	848.1546	183.83006	1196.1591	851.80396	222.59947	1194.0107	1088.6364	202.77916	-1428.5629	1082.7585	241.07732	-1433.0016	-1171.938	1687.0358	-1581.6976	-1170.5931	1648.0597	-1581.4696	-1271.1326	1698.9385	1097.9811	-1271.8285	1659.9604	1099.0867	952.75787	1705.7255	1186.8873	972.75159	1733.8937	1168.7819	1026.5171	1669.2391	-1551.5657	1028.0543	1630.2715	-1551.9601	-234.28241	1638.3198	-234.47148	-232.8582	1599.3527	-235.19952
665	5.5333333	-1038.2164	214.6877	-1644.1012	-1109.473	204.2226	-1599.339	-1063.5886	172.98618	-1625.8885	-1054.1499	262.39719	-1634.8757	-1352.5969	235.06734	1003.5923	-1281.3241	227.40233	1052.0836	-1322.626	193.97548	1020.8435	-1284.5946	288.00919	1052.6371	813.97485	187.76424	1209.3868	892.35736	178.8214	1178.8959	844.57007	145.51553	1198.2302	861.16852	292.54901	1168.3324	1115.8352	210.0685	-1401.8496	1056.3099	194.29793	-1460.3958	1094.9038	162.08173	-1423.8218	1069.6691	239.48598	-1426.2764	-1204.5787	1686.0277	-1563.1742	-1129.1366	1688.3818	-1606.024	-1173.2214	1724.52	-1581.9047	-1134.0063	1581.1288	-1603.9478	-1239.5662	1699.0422	1119.484	-1308.3718	1699.576	1069.8141	-1270.483	1736.3429	1096.9316	-1245.6715	1592.9381	1110.7361	988.86902	1664.2029	1162.134	957.23633	1700.5793	1183.7804	922.0274	1662.353	1214.7666	939.85284	1659.4628	1159.7114	999.02838	1668.4386	-1579.4243	1058.7839	1669.9857	-1518.7457	1024.9861	1708.0918	-1551.1802	1059.2777	1672.2251	-1585.5653	-272.51804	1636.8798	-231.65872	-187.78102	1640.1112	-237.89679	-235.63802	1675.2498	-233.77811	-233.39777	1637.8073	-202.49998	-239.31671	1639.2488	-281.21146																																														-1068.5355	210.23485	-1625.0551	-1073.6688	248.88588	-1624.1902	-1321.3126	231.70288	1024.8768	-1319.9637	270.45871	1029.02	848.1189	183.86865	1196.1045	851.70685	222.64375	1193.9556	1088.7167	202.88373	-1428.522	1082.9071	241.19525	-1432.9353	-1171.9423	1687.046	-1581.7111	-1170.6117	1648.0692	-1581.5099	-1270.783	1699.2843	1096.949	-1271.0988	1660.2856	1096.9672	952.77356	1705.7113	1186.8344	972.74341	1733.8727	1168.6921	1026.4252	1669.1478	-1551.6042	1027.8651	1630.1768	-1552.0288	-234.28163	1638.3379	-234.47356	-232.84975	1599.3711	-235.20773
666	5.5416667	-1038.2052	214.64813	-1644.0696	-1109.5663	204.08122	-1599.467	-1063.542	173.00655	-1625.8965	-1054.1281	262.34601	-1634.861	-1352.5997	234.5522	1004.071	-1281.3301	227.44945	1052.1266	-1322.6047	194.01271	1020.8166	-1284.6536	287.84354	1052.6946	814.00714	187.76749	1209.3182	892.2182	178.61127	1178.9833	844.50604	145.50728	1198.2698	861.34198	292.73929	1169.2186	1115.8168	210.03462	-1401.8627	1056.2814	194.09552	-1460.2172	1094.9142	162.14041	-1423.8538	1069.6608	239.4567	-1426.3158	-1204.5771	1686.0215	-1563.1699	-1129.1632	1688.3597	-1605.9829	-1173.2209	1724.5228	-1581.9066	-1133.9919	1581.103	-1603.9436	-1239.3334	1698.7007	1119.3885	-1309.1931	1698.5391	1071.8387	-1270.4823	1736.3157	1096.9274	-1245.6669	1592.9137	1110.7375	988.91064	1664.2583	1162.1349	957.27307	1700.5533	1183.8287	921.9541	1662.3433	1214.8341	939.83417	1659.4982	1159.7368	999.04425	1668.4426	-1579.4417	1058.9275	1670.1829	-1518.7252	1024.9761	1708.0768	-1551.1854	1059.2776	1672.1873	-1585.4635	-272.54062	1636.8716	-231.65109	-187.78418	1640.1036	-237.89748	-235.63618	1675.2377	-233.7827	-233.36562	1637.8019	-202.51785	-239.33881	1639.2445	-281.2077																																														-1068.5479	210.15508	-1625.1044	-1073.755	248.7971	-1624.2806	-1321.6515	231.46788	1024.9387	-1320.665	270.22141	1029.2037	848.13666	183.77191	1196.0807	851.81464	222.53473	1193.8633	1088.6174	202.75269	-1428.5223	1082.6802	241.04591	-1432.9246	-1171.9402	1687.0333	-1581.6981	-1170.6086	1648.0566	-1581.4813	-1271.0088	1698.6272	1097.8289	-1271.5531	1659.6422	1098.7614	952.6991	1705.8004	1186.9648	972.65436	1734.0066	1168.8763	1026.5143	1669.2408	-1551.5894	1028.0579	1630.2734	-1551.9949	-234.27951	1638.3304	-234.47086	-232.84711	1599.3635	-235.19742
667	5.55	-1038.173	214.71338	-1644.0902	-1109.4865	204.21387	-1599.3156	-1063.5466	173.02727	-1625.8865	-1054.1389	262.38541	-1634.8604	-1352.545	235.11522	1003.577	-1281.3386	227.42476	1052.1188	-1322.5378	194.03009	1020.7391	-1284.3994	288.0072	1052.5658	813.98743	187.80988	1209.3641	892.23859	178.6312	1179.0167	844.54321	145.3474	1198.3451	861.17603	292.51395	1168.4392	1115.8351	210.04903	-1401.8524	1056.2775	194.10454	-1460.2124	1094.9061	162.06879	-1423.8368	1069.6814	239.51656	-1426.2885	-1204.5803	1686.0339	-1563.1897	-1129.1167	1688.3773	-1606.0092	-1173.2205	1724.5232	-1581.9148	-1133.9963	1581.1165	-1603.9425	-1239.251	1698.708	1119.3701	-1309.323	1698.7598	1071.9148	-1270.4889	1736.3479	1096.938	-1245.6288	1592.8474	1110.7152	988.88159	1664.2224	1162.149	957.25751	1700.5842	1183.8141	921.9231	1662.3062	1214.702	939.81177	1659.4535	1159.712	999.04694	1668.4583	-1579.4222	1058.9243	1670.1766	-1518.7367	1024.9788	1708.0808	-1551.1788	1059.3004	1672.2035	-1585.4633	-272.53439	1636.8717	-231.6508	-187.79001	1640.1	-237.90282	-235.64609	1675.2428	-233.7563	-233.36877	1637.7949	-202.51752	-239.31506	1639.2317	-281.20624																																														-1068.5006	210.2482	-1625.0486	-1073.6449	248.89766	-1624.1786	-1321.2903	231.73964	1024.8834	-1320.0085	270.48529	1029.1416	848.18359	183.79874	1196.1022	851.85333	222.55981	1193.8411	1088.6104	202.76057	-1428.5294	1082.6859	241.05417	-1432.9454	-1171.9406	1687.0475	-1581.71	-1170.6095	1648.0707	-1581.4971	-1271.1005	1698.7316	1097.8004	-1271.7346	1659.7468	1098.694	952.78564	1705.7258	1186.8774	972.81311	1733.9017	1168.8215	1026.5093	1669.2462	-1551.5891	1028.0449	1630.2787	-1552.001	-234.29262	1638.3285	-234.47206	-232.86391	1599.3619	-235.22766
